<?xml version="1.0" encoding="UTF-8"?>
<!DOCTYPE svg PUBLIC "-//W3C//DTD SVG 1.1//EN" "http://www.w3.org/Graphics/SVG/1.1/DTD/svg11.dtd">
<!-- Creator: CorelDRAW -->
<svg xmlns="http://www.w3.org/2000/svg" xml:space="preserve" width="164.556mm" height="54.0945mm" style="shape-rendering:geometricPrecision; text-rendering:geometricPrecision; image-rendering:optimizeQuality; fill-rule:evenodd; clip-rule:evenodd"
viewBox="0 0 148.946 48.963"
 xmlns:xlink="http://www.w3.org/1999/xlink">
 <defs>
  <style type="text/css">
   <![CDATA[
    .str0 {stroke:#DA251D;stroke-width:0.181028}
    .fil1 {fill:#DA251D}
    .fil0 {fill:#28166F;fill-rule:nonzero}
   ]]>
  </style>
 </defs>
 <g id="Ebene_x0020_1">
  <metadata id="CorelCorpID_0Corel-Layer"/>
  <path class="fil0" d="M48.4864 48.8394l7.12552 -8.90972 -10.2173 -12.7109 9.91751 0 3.53701 5.41779c0.299782,0.45619 0.548242,0.881966 0.74511,1.27208 0.205647,0.390295 0.351103,0.755157 0.454017,1.0897 0.102643,-0.354724 0.24837,-0.724744 0.436639,-1.1049 0.197139,-0.380067 0.445509,-0.800685 0.7452,-1.25687l3.58842 -5.41779 9.55789 0 -15.9298 21.6206 -9.96023 0z"/>
  <polygon class="fil0" points="21.4558,48.8386 21.4558,15.6601 28.945,15.6601 28.945,36.6588 36.8067,27.2189 46.2686,27.2189 36.5436,37.6232 47.1453,48.8386 37.1062,48.8386 28.945,39.2307 28.945,48.8386 "/>
  <path class="fil0" d="M-0 46.3181l1.5782 -5.8233c1.11794,0.971756 2.33815,1.71696 3.67513,2.23578 1.33707,0.518735 2.68147,0.781768 4.03329,0.781768 0.957093,0 1.68763,-0.153421 2.18446,-0.460353 0.504162,-0.306842 0.752622,-0.752441 0.752622,-1.33707 0,-0.957093 -1.00823,-1.67306 -3.01755,-2.14074 -0.657583,-0.160752 -1.19089,-0.292269 -1.59277,-0.409213 -2.27959,-0.628347 -3.93816,-1.44659 -4.97563,-2.46958 -1.03032,-1.02281 -1.54896,-2.3453 -1.54896,-3.97464 0,-2.09693 0.789009,-3.77008 2.36721,-5.02686 1.57829,-1.25669 3.71161,-1.88495 6.40774,-1.88495 1.38821,0 2.79832,0.160662 4.23052,0.482257 1.43202,0.321414 2.90051,0.818245 4.39843,1.48307l-1.58553 5.246c-1.00832,-0.686728 -2.03855,-1.20555 -3.08326,-1.56354 -1.03756,-0.357982 -2.08245,-0.533307 -3.12725,-0.533307 -0.869475,0 -1.52697,0.138758 -1.96533,0.409122 -0.44578,0.270274 -0.665005,0.657583 -0.665005,1.17632 0,0.767195 1.00099,1.41745 3.00298,1.94351 0.453022,0.131607 0.796431,0.226556 1.0229,0.277696 2.64499,0.759773 4.4788,1.65124 5.51636,2.66681 1.03023,1.0229 1.54896,2.40377 1.54896,4.14273 0,2.21388 -0.847571,4.00388 -2.54995,5.36294 -1.69505,1.36631 -3.9455,2.04588 -6.73649,2.04588 -1.8997,0 -3.66056,-0.219224 -5.2899,-0.650432 -1.62934,-0.438358 -3.1564,-1.09585 -4.58117,-1.9799z"/>
  <path class="fil0" d="M130.097 2.57041l-12.2896 5.79162 -17.5055 -8.36203 -0.013215 8.08895 7.4625 2.89717c0.628256,0.245473 1.21479,0.449039 1.75235,0.610516 0.537561,0.168537 1.04027,0.288105 1.50117,0.372645 -0.489137,0.0831822 -0.999182,0.200941 -1.52335,0.353818 -0.524075,0.159757 -1.10427,0.361422 -1.73334,0.604904l-7.472 2.91463 -0.0127624 7.79559 29.8204 -12.9439 0.0133055 -8.12388z"/>
  <path class="fil0" d="M148.946 38.8362l-16.4394 0c0.0145727,1.67315 0.44569,2.95917 1.28593,3.86503 0.84024,0.906043 2.03122,1.35897 3.57276,1.35897 1.1545,0 2.13359,-0.219134 2.92269,-0.650251 0.79634,-0.438358 1.39554,-1.08861 1.81191,-1.94342l5.7355 2.31616c-0.686728,1.65124 -1.89952,2.92984 -3.63856,3.82855 -1.73895,0.898621 -3.87236,1.35173 -6.40032,1.35173 -3.77026,0 -6.78781,-1.04489 -9.0674,-3.13458 -2.27226,-2.0896 -3.4121,-4.85145 -3.4121,-8.27821 0,-3.36087 1.13984,-6.15928 3.4121,-8.38773 2.27959,-2.22845 5.15838,-3.33896 8.63619,-3.33896 3.58018,0 6.40783,1.12518 8.47553,3.38277 2.06779,2.25044 3.10517,5.34104 3.10517,9.26454l0 0.365404zm-7.51092 -4.30348c-0.14618,-1.22755 -0.613774,-2.20655 -1.40287,-2.95184 -0.789099,-0.737868 -1.76819,-1.1106 -2.9226,-1.1106 -1.24212,0 -2.22845,0.336168 -2.96641,1.01566 -0.730537,0.679487 -1.22013,1.69514 -1.46859,3.04678l8.76047 0z"/>
  <path class="fil0" d="M100.087 48.8532l0 -21.6198 6.97762 0 0 4.38385c1.00832,-1.75343 2.18455,-3.03945 3.50705,-3.85046 1.32983,-0.811094 2.92251,-1.22013 4.77849,-1.22013 1.39554,0 2.64481,0.226466 3.7336,0.672155 1.09585,0.452931 1.9799,1.09585 2.66672,1.93627 0.569965,0.730537 0.979088,1.61458 1.22031,2.65948 0.241038,1.03738 0.365314,2.59376 0.365314,4.66146l0 12.3771 -7.64253 0 0 -11.5807c0,-1.73162 -0.284937,-2.98107 -0.847571,-3.77008 -0.562634,-0.781858 -1.46859,-1.17641 -2.7108,-1.17641 -1.58544,0 -2.73994,0.584448 -3.46324,1.75352 -0.730627,1.16899 -1.09594,3.06869 -1.09594,5.69911l0 9.07455 -7.48902 0z"/>
  <polygon class="fil0" points="89.1524,48.8532 89.1524,27.2334 96.7949,27.2334 96.7949,48.8532 "/>
  <polygon class="fil0" points="77.8853,48.8532 77.8853,15.6746 85.5278,15.6746 85.5278,48.8532 "/>
  <rect class="fil1 str0" x="89.3674" y="16.4137" width="7.54214" height="7.54214"/>
 </g>
</svg>
